<svg height="256px" 
width="256px" 
version="1.1" 
id="_x32_" 
xmlns="http://www.w3.org/2000/svg" 
xmlns:xlink="http://www.w3.org/1999/xlink" 
viewBox="0 0 512 512" xml:space="preserve" 
fill="#000000"><g id="SVGRepo_bgCarrier" 
strokeWidth="0"></g><g id="SVGRepo_tracerCarrier" 
strokeLinecap="round" 
strokeLinejoin="round"></g><g 
id="SVGRepo_iconCarrier"> <style 
type="text/css"> .st0{fill:#4c8527;} </style> <g> 
<path class="st0" d="M511.828,310.935l-1.282-50.678l-1.141,1.72c0.054-1.618,0.148-3.244,0.148-4.863 c-0.054-28.72-8.239-57.447-17.557-83.353c-8.904-24.569-16.72-45.612-27.641-64.694c-10.882-19.058-25.162-35.88-45.433-50.396 c-21.324-15.29-47.597-24.022-75.646-29.267c-28.078-5.214-58.103-6.848-87.277-6.856c-29.165,0.008-59.19,1.642-87.261,6.856 c-28.056,5.245-54.329,13.977-75.662,29.259C72.816,73.187,58.534,90.01,47.66,109.067c-10.92,19.081-18.737,40.125-27.641,64.686 c-9.326,25.921-17.503,54.64-17.565,83.36c0,1.767,0.102,3.542,0.164,5.308l-1.157-1.727l-1.29,50.232 C0.062,315.031,0,319.119,0,323.183c0.008,16.573,1,32.754,4.432,48.294c3.416,15.509,9.396,30.471,19.355,43.674 c11.561,15.368,25.312,27.962,41.016,37.912c23.576,14.954,51.241,23.968,82.899,29.307c31.69,5.339,67.532,7.074,108.297,7.082 c52.992-0.023,99.503-4.174,138.76-15.368c19.613-5.605,37.435-13.016,53.187-22.708c15.728-9.678,29.369-21.7,40.297-36.224 c9.951-13.203,15.924-28.165,19.331-43.666c3.424-15.524,4.417-31.698,4.425-48.27C512,319.143,511.938,315.046,511.828,310.935z M8.661,328.241c0.008,0.015,0.016,0.023,0.031,0.032l0.031,0.046L8.661,328.241z M474.095,282.52 c-2.36,7.802-5.933,14.883-11.17,21.457c-9.271,11.608-19.925,20.809-32.511,28.36c-18.855,11.296-42.314,18.824-71.292,23.435 c-28.946,4.612-63.263,6.277-103.122,6.269c-53.156,0.024-96.423-2.986-130.286-11.881c-16.947-4.44-31.526-10.288-44.112-17.823 c-12.585-7.552-23.24-16.752-32.511-28.36c-5.245-6.574-8.81-13.656-11.17-21.457c-2.353-7.786-3.448-16.306-3.448-25.406 c-0.054-22.434,6.856-48.231,15.658-72.472c8.81-24.404,16.204-43.837,25.304-59.636c9.138-15.829,19.675-28.29,36.349-40.352 c15.619-11.295,37.584-19.12,62.802-23.771c25.203-4.698,53.485-6.324,81.414-6.316c27.938-0.008,56.228,1.618,81.422,6.316 c25.226,4.651,47.184,12.476,62.802,23.771c16.674,12.07,27.219,24.53,36.357,40.352c9.099,15.799,16.494,35.232,25.303,59.636 c8.802,24.233,15.704,50.037,15.65,72.472C477.534,266.214,476.448,274.734,474.095,282.52z"></path> 
<polygon class="st0" points="210.458,265.783 206.706,295.84 305.31,295.84 301.542,265.783 "></polygon> 
<polygon class="st0" points="294.882,93.887 217.118,93.887 214.085,118.174 297.915,118.174 "></polygon> 
<path class="st0" d="M213.132,166.968c3.204-3.955,7.27-7.059,11.788-9.482c9.068-4.815,19.996-7.05,31.08-7.074 c8.333,0.007,16.557,1.29,23.968,3.939c7.394,2.658,14.102,6.684,18.917,12.617c1.83,2.252,3.299,4.831,4.409,7.614h95.024 l-22.122-67.274c-2.83-8.591-10.85-14.399-19.903-14.399h-46.324l3.987,31.878l1.063,8.489H196.981l5.05-40.367h-46.324 c-9.036,0-17.056,5.808-19.886,14.399l-22.122,67.274h95.024C209.832,171.799,211.302,169.22,213.132,166.968z"></path> 
<path class="st0" d="M230.344,195.015c6.129,3.4,15.494,5.668,25.656,5.644c7.63,0.008,14.805-1.235,20.497-3.33 c5.675-2.04,9.755-4.956,11.741-7.653h-64.46C225.107,191.459,227.311,193.351,230.344,195.015z"></path> 
<path class="st0" d="M256,165.515c-6.738-0.008-13.367,1.078-18.87,3.048c-4.378,1.556-7.926,3.674-10.444,6.02h58.659 c-1.454-1.36-3.252-2.642-5.378-3.784C273.792,167.468,264.99,165.491,256,165.515z"></path> 
<path class="st0" d="M403.273,189.677h-98.652c-0.781,3.26-2.251,6.3-4.19,8.904c-2.986,4.018-6.957,7.168-11.506,9.662 c-9.099,4.964-20.59,7.488-32.926,7.511c-9.24-0.007-18.01-1.454-25.671-4.244c-7.614-2.806-14.259-6.918-18.745-12.93 c-1.954-2.603-3.408-5.644-4.19-8.904h-98.652l-25.921,78.842c-2.096,6.387-1.016,13.383,2.923,18.816 c3.94,5.441,10.256,8.662,16.963,8.662h88.771l5.659-45.308h117.74l5.66,45.308h88.771c6.722,0,13.022-3.221,16.947-8.662 c3.939-5.433,5.034-12.429,2.938-18.816L403.273,189.677z"></path> 
</g> 
</g>
</svg>